<?xml version="1.0" encoding="UTF-8"?>
<svg xmlns="http://www.w3.org/2000/svg" viewBox="0 0 50 50">
  <path class="cls-1" d="M31.13,12.75c1.13,0,2.04,.91,2.04,2.04s-.91,2.04-2.04,2.04H14.79c-1.13,0-2.04-.91-2.04-2.04s.91-2.04,2.04-2.04H31.13Zm15.74,36.15c-.8,.8-2.09,.8-2.89,0l-4.91-4.91c-1.46,.93-3.14,1.42-4.87,1.43-5.07,0-9.19-4.11-9.19-9.19s4.11-9.19,9.19-9.19,9.19,4.11,9.19,9.19h0c0,1.73-.5,3.42-1.43,4.87l4.91,4.91c.8,.8,.8,2.09,0,2.89Zm-12.67-7.57c2.82,0,5.1-2.29,5.1-5.1s-2.29-5.1-5.1-5.1-5.1,2.29-5.1,5.1,2.29,5.1,5.1,5.1Zm-9.19,4.08H12.75c-3.38,0-6.12-2.74-6.12-6.12V10.71c0-3.38,2.74-6.12,6.12-6.12h24.5c1.13,0,2.04,.91,2.04,2.04V22.96c0,1.13,.91,2.04,2.04,2.04s2.04-.91,2.04-2.04V6.62c0-3.38-2.74-6.12-6.12-6.12H12.75c-5.64,0-10.2,4.57-10.21,10.21v28.58c0,5.64,4.57,10.2,10.21,10.21h12.25c1.13,0,2.04-.91,2.04-2.04s-.91-2.04-2.04-2.04Z"/>
</svg>