<?xml version="1.0" encoding="UTF-8"?>
<svg id="Layer_1" data-name="Layer 1" xmlns="http://www.w3.org/2000/svg" viewBox="0 0 50 50">
  <path class="cls-1" d="M48.9,33.83c-.8-.8-2.09-.8-2.89,0l-11.49,11.49-5.49-5.42c-.79-.81-2.09-.83-2.89-.04s-.83,2.09-.04,2.89l5.6,5.51c.71,.77,1.7,1.21,2.75,1.23h.07c1.02,0,2-.4,2.73-1.13l11.65-11.65c.8-.8,.8-2.09,0-2.89h0Z"/>
  <path class="cls-1" d="M23.14,45.33c-11.23-1.03-19.5-10.96-18.47-22.19C5.69,11.91,15.63,3.64,26.86,4.67c10.51,.96,18.56,9.78,18.56,20.33,0,.63-.03,1.25-.08,1.86-.1,1.12,.72,2.12,1.84,2.22,0,0,0,0,0,0,1.11,.11,2.1-.7,2.21-1.81,0-.01,0-.03,0-.04,.07-.74,.1-1.48,.1-2.23,0-13.53-10.97-24.5-24.5-24.5C11.47,.5,.5,11.47,.5,25c0,12.67,9.66,23.25,22.27,24.4h.19c1.13,.05,2.08-.82,2.13-1.95,.05-1.13-.82-2.08-1.95-2.13v.02Z"/>
  <path class="cls-1" d="M22.96,14.79v9.36l-5.53,5.53c-.81,.78-.83,2.08-.05,2.89,.78,.81,2.08,.83,2.89,.05,.02-.02,.03-.03,.05-.05l6.13-6.13c.38-.38,.6-.9,.6-1.44V14.79c0-1.13-.91-2.04-2.04-2.04s-2.04,.91-2.04,2.04h0Z"/>
</svg>