<?xml version="1.0" encoding="UTF-8"?>
<svg id="Layer_1" data-name="Layer 1" xmlns="http://www.w3.org/2000/svg" viewBox="0 0 50 50">
  <path class="cls-1" d="M49.5,24.96c0-3.4-2.13-6.44-5.32-7.63l-.08-.19c-2.03-4.95-5.9-8.92-10.81-11.06l-.67-.29C31.06,1.58,26.38-.56,22.17,1.01c-2.21,.82-3.96,2.57-4.78,4.78l-.85,.38c-4.86,2.21-8.69,6.2-10.69,11.15C1.63,18.86-.54,23.53,.99,27.74c.81,2.23,2.56,4,4.79,4.83l.26,.61c2.05,4.75,5.81,8.56,10.54,10.67l.8,.36c1.57,4.21,6.26,6.34,10.46,4.77,2.21-.82,3.94-2.56,4.77-4.77l.75-.33c4.95-2.21,8.83-6.26,10.84-11.3,3.18-1.19,5.29-4.23,5.3-7.63ZM25,4.58c2.26,0,4.08,1.83,4.08,4.08s-1.83,4.08-4.08,4.08-4.08-1.83-4.08-4.08,1.83-4.08,4.08-4.08ZM8.64,20.88l.17,.06,.02-.05c2.15,.19,3.73,2.09,3.54,4.24-.19,2.15-2.09,3.73-4.24,3.54-2.15-.19-3.73-2.09-3.54-4.24,.19-2.07,1.97-3.64,4.05-3.55h0Zm16.36,24.53c-2.26,0-4.08-1.83-4.08-4.08s1.83-4.08,4.08-4.08,4.08,1.83,4.08,4.08-1.83,4.08-4.08,4.08Zm7.95-5.89c-.99-4.39-5.35-7.15-9.74-6.16-3.07,.69-5.47,3.09-6.16,6.16-2.79-1.52-5.08-3.81-6.6-6.6,4.39-.99,7.14-5.35,6.15-9.74-.69-3.05-3.06-5.43-6.1-6.14,1.52-2.75,3.79-5.01,6.55-6.53,.99,4.39,5.36,7.14,9.75,6.15,3.06-.69,5.45-3.08,6.15-6.15,2.75,1.52,5.02,3.78,6.55,6.52-4.39,1-7.13,5.37-6.13,9.76,.7,3.06,3.1,5.45,6.16,6.14-1.52,2.78-3.8,5.07-6.58,6.61Zm8.38-10.48c-2.26,0-4.08-1.83-4.08-4.08s1.83-4.08,4.08-4.08,4.08,1.83,4.08,4.08-1.83,4.08-4.08,4.08Z"/>
</svg>