<?xml version="1.0" encoding="UTF-8"?>
<svg id="Layer_1" data-name="Layer 1" xmlns="http://www.w3.org/2000/svg" viewBox="0 0 50 50">
  <path class="cls-1" d="M40.31,49.5c-.83,0-1.59-.51-1.9-1.28l-1.72-4.31-4.32-1.82c-1.04-.46-1.51-1.67-1.05-2.71,.22-.49,.62-.88,1.12-1.08l4.26-1.61,1.71-4.27c.44-1.05,1.65-1.54,2.7-1.1,.5,.21,.89,.6,1.1,1.1l1.72,4.29,4.29,1.72c1.05,.44,1.54,1.64,1.1,2.69-.21,.5-.6,.89-1.1,1.1l-4.29,1.72-1.72,4.29c-.31,.78-1.06,1.29-1.9,1.29Zm-19.4-6.12c-1.81,.02-3.42-1.15-3.95-2.88l-3.3-10.3-10.34-3.46C1.16,26-.01,23.65,.72,21.48c.43-1.27,1.44-2.26,2.73-2.65l10.26-3.13,3.45-10.32c.53-1.74,2.17-2.91,3.99-2.83,1.81,0,3.41,1.2,3.91,2.94l3.13,10.24,10.27,3.29c2.18,.73,3.36,3.1,2.63,5.28-.42,1.24-1.39,2.21-2.63,2.63h0l-10.29,3.29-3.29,10.29c-.53,1.73-2.14,2.91-3.95,2.88Zm.23-36.7l-3.9,11.31c-.21,.63-.71,1.11-1.34,1.31l-11.27,3.44,11.31,3.91c.62,.21,1.1,.69,1.3,1.31l3.61,11.29,3.74-11.29c.2-.63,.69-1.12,1.32-1.32l11.29-3.61s.03-.01,.04-.02l-11.33-3.72c-.64-.2-1.14-.71-1.33-1.35l-3.44-11.26Zm16.68,18.29h0Zm4.53-10.17c-.94,0-1.75-.64-1.98-1.55l-.73-2.92-2.93-.79c-1.09-.29-1.73-1.41-1.44-2.5,.2-.73,.78-1.29,1.51-1.46l2.86-.66,.73-2.87c.27-1.09,1.38-1.76,2.48-1.48,.73,.18,1.3,.75,1.48,1.48l.72,2.9,2.9,.72c1.09,.27,1.76,1.38,1.48,2.48-.18,.73-.75,1.3-1.48,1.48l-2.9,.72-.72,2.9c-.23,.91-1.04,1.55-1.98,1.55Z"/>
</svg>