<?xml version="1.0" encoding="UTF-8"?>
<svg id="Layer_1" data-name="Layer 1" xmlns="http://www.w3.org/2000/svg" viewBox="0 0 50 50">
  <path class="cls-1" d="M2.54,10.2h5.59c1.1,4.06,5.28,6.45,9.34,5.35,2.61-.71,4.64-2.74,5.35-5.35h24.64c1.13,0,2.04-.91,2.04-2.04s-.91-2.04-2.04-2.04H22.82C21.72,2.06,17.53-.33,13.48,.77c-2.61,.71-4.64,2.74-5.35,5.35H2.54c-1.13,0-2.04,.91-2.04,2.04s.91,2.04,2.04,2.04ZM15.47,4.59c1.97,0,3.57,1.6,3.57,3.57s-1.6,3.57-3.57,3.57-3.57-1.6-3.57-3.57c0-1.97,1.6-3.57,3.57-3.57Z"/>
  <path class="cls-1" d="M47.46,22.96h-5.59c-1.1-4.06-5.28-6.45-9.34-5.35-2.61,.71-4.64,2.74-5.35,5.35H2.54c-1.13,0-2.04,.91-2.04,2.04s.91,2.04,2.04,2.04H27.18c1.1,4.06,5.28,6.45,9.34,5.35,2.61-.71,4.64-2.74,5.35-5.35h5.59c1.13,0,2.04-.91,2.04-2.04s-.91-2.04-2.04-2.04Zm-12.93,5.61c-1.97,0-3.57-1.6-3.57-3.57s1.6-3.57,3.57-3.57,3.57,1.6,3.57,3.57c0,1.97-1.6,3.57-3.57,3.57Z"/>
  <path class="cls-1" d="M47.46,39.8H22.82c-1.1-4.06-5.28-6.45-9.34-5.35-2.61,.71-4.64,2.74-5.35,5.35H2.54c-1.13,0-2.04,.91-2.04,2.04s.91,2.04,2.04,2.04h5.59c1.1,4.06,5.28,6.45,9.34,5.35,2.61-.71,4.64-2.74,5.35-5.35h24.64c1.13,0,2.04-.91,2.04-2.04s-.91-2.04-2.04-2.04Zm-31.98,5.61c-1.97,0-3.57-1.6-3.57-3.57s1.6-3.57,3.57-3.57,3.57,1.6,3.57,3.57c0,1.97-1.6,3.57-3.57,3.57Z"/>
</svg>